<svg width="15" height="15" viewBox="0 0 15 15" fill="none" xmlns="http://www.w3.org/2000/svg">
<path fill-rule="evenodd" clip-rule="evenodd" d="M7.25 6.08156C7.12739 6.32678 6.96811 6.55776 6.76293 6.76293C6.55776 6.96811 6.32678 7.12739 6.08156 7.25C6.32678 7.37261 6.55776 7.53189 6.76293 7.73706C6.96811 7.94224 7.12739 8.17322 7.25 8.41844C7.37261 8.17322 7.53189 7.94224 7.73706 7.73706C7.94224 7.53189 8.17322 7.37261 8.41844 7.25C8.17322 7.12739 7.94224 6.96811 7.73706 6.76293C7.53189 6.55776 7.37261 6.32678 7.25 6.08156ZM5.76935 2.2152C5.52293 1.28388 6.19263 0.25 7.25 0.25C8.30737 0.25 8.97707 1.28388 8.73065 2.2152C8.57754 2.79385 8.43139 3.52948 8.42848 4.21169C8.42546 4.92011 8.5769 5.40288 8.83701 5.66299C9.09712 5.9231 9.57989 6.07454 10.2883 6.07152C10.9705 6.06861 11.7061 5.92246 12.2848 5.76935C13.2161 5.52293 14.25 6.19263 14.25 7.25C14.25 8.30737 13.2161 8.97707 12.2848 8.73065C11.7061 8.57754 10.9705 8.43139 10.2883 8.42848C9.57989 8.42546 9.09712 8.5769 8.83701 8.83701C8.5769 9.09712 8.42546 9.57989 8.42848 10.2883C8.43139 10.9705 8.57754 11.7061 8.73065 12.2848C8.97707 13.2161 8.30737 14.25 7.25 14.25C6.19263 14.25 5.52293 13.2161 5.76935 12.2848C5.92246 11.7061 6.06861 10.9705 6.07152 10.2883C6.07454 9.57989 5.9231 9.09712 5.66299 8.83701C5.40288 8.5769 4.92011 8.42546 4.21169 8.42848C3.52948 8.43139 2.79385 8.57754 2.2152 8.73065C1.28388 8.97707 0.25 8.30737 0.25 7.25C0.25 6.19263 1.28388 5.52293 2.2152 5.76935C2.79385 5.92246 3.52948 6.06861 4.21169 6.07152C4.92011 6.07454 5.40288 5.9231 5.66299 5.66299C5.9231 5.40288 6.07454 4.92011 6.07152 4.21169C6.06861 3.52948 5.92246 2.79385 5.76935 2.2152Z" fill="black"/>
</svg>
